<?xml version="1.0" encoding="UTF-8" standalone="no"?>
<!-- Created with Inkscape (http://www.inkscape.org/) -->

<svg
   width="50.029644mm"
   height="50.029644mm"
   viewBox="0 0 50.029644 50.029644"
   version="1.1"
   id="svg5"
   inkscape:version="1.1.2 (b8e25be833, 2022-02-05)"
   sodipodi:docname="banns_favicon.svg"
   xmlns:inkscape="http://www.inkscape.org/namespaces/inkscape"
   xmlns:sodipodi="http://sodipodi.sourceforge.net/DTD/sodipodi-0.dtd"
   xmlns="http://www.w3.org/2000/svg"
   xmlns:svg="http://www.w3.org/2000/svg">
  <sodipodi:namedview
     id="namedview7"
     pagecolor="#ffffff"
     bordercolor="#999999"
     borderopacity="1"
     inkscape:pageshadow="0"
     inkscape:pageopacity="0"
     inkscape:pagecheckerboard="0"
     inkscape:document-units="mm"
     showgrid="false"
     fit-margin-top="0"
     fit-margin-left="0"
     fit-margin-right="0"
     fit-margin-bottom="0"
     inkscape:zoom="1.0796969"
     inkscape:cx="314.4401"
     inkscape:cy="253.77493"
     inkscape:window-width="1920"
     inkscape:window-height="1017"
     inkscape:window-x="-8"
     inkscape:window-y="-8"
     inkscape:window-maximized="1"
     inkscape:current-layer="layer1" />
  <defs
     id="defs2" />
  <g
     inkscape:label="Layer 1"
     inkscape:groupmode="layer"
     id="layer1"
     transform="translate(-25.062773,-71.848071)">
    <circle
       style="opacity:0.996;fill:#f0dddb;stroke:#727272;stroke-width:1.665;stroke-linecap:round;stroke-miterlimit:4;stroke-dasharray:none;stroke-opacity:1"
       id="path851"
       cx="50.077595"
       cy="96.862892"
       r="24.432322" />
    <path
       d="m 46.146242,115.41098 c -0.128006,-0.1101 -0.145151,-0.16893 -0.20355,-0.6985 -0.03507,-0.31805 -0.06489,-0.68376 -0.06625,-0.81271 l -0.0024,-0.23444 -0.6223,-0.0268 c -1.025311,-0.0442 -1.703587,-0.31601 -2.301516,-0.92219 -0.567057,-0.57489 -0.737386,-1.0682 -0.447532,-1.2962 0.07361,-0.0579 0.189675,-0.10528 0.257908,-0.10528 0.137866,0 0.421039,0.25236 0.421039,0.37523 0,0.15564 0.593818,0.72145 0.900552,0.85808 0.365339,0.16274 0.977464,0.29069 1.390677,0.29069 h 0.314309 l -0.03138,-0.3683 c -0.01725,-0.20257 -0.05813,-1.2062 -0.09083,-2.23031 -0.172516,-5.40356 0.380193,-12.327516 1.534248,-19.219996 0.635685,-3.79658 1.41905,-7.34611 1.787025,-8.09723 0.210201,-0.42907 0.374197,-0.52619 0.6439,-0.38132 0.300453,0.16138 0.33368,0.28859 0.330399,1.26495 -0.0033,0.96819 -0.07047,1.33813 -0.436383,2.40178 -0.365141,1.0614 -0.709157,1.73842 -0.883356,1.73842 -0.0634,0 -0.216813,0.7434 -0.576565,2.794 -0.77947,4.44301 -1.088334,7.22688 -1.482322,13.360406 -0.12826,1.9967 -0.105138,8.49366 0.03071,8.62951 0.09308,0.0931 1.941906,-0.4284 2.94227,-0.82989 2.302438,-0.92407 4.2452,-2.31873 5.805215,-4.16742 1.482934,-1.75735 2.349185,-3.76381 2.434452,-5.6388 0.103235,-2.270093 -1.017503,-3.735016 -3.256108,-4.256056 -0.390459,-0.0909 -0.625763,-0.10744 -1.552416,-0.10918 -1.127181,-0.002 -1.366819,0.0223 -2.550017,0.26011 -0.410512,0.0825 -0.709838,0.11747 -0.823301,0.0962 -0.303872,-0.057 -0.472655,-0.38221 -0.33341,-0.64239 0.02886,-0.0539 0.263173,-0.25607 0.5207,-0.44922 0.257524,-0.19314 0.799698,-0.6465 1.204828,-1.00746 3.357975,-2.99184 5.693198,-6.70377 6.428034,-10.21764 0.189378,-0.90556 0.241741,-1.51 0.213547,-2.465 -0.03056,-1.03497 -0.155895,-1.60135 -0.520033,-2.34988 -0.365522,-0.75137 -1.019736,-1.37479 -1.757116,-1.67442 -0.955509,-0.38825 -2.490973,-0.34461 -3.842436,0.10922 -0.848018,0.28476 -2.029084,0.93676 -2.884196,1.59219 -1.179037,0.90371 -2.28785,2.16325 -3.526023,4.00532 -1.801278,2.67981 -3.593444,6.71946 -4.701185,10.59673 -0.434817,1.52192 -0.61064,2.28707 -0.531612,2.31341 0.142605,0.0475 0.30062,0.26084 0.30062,0.40582 0,0.178423 -0.177684,0.773183 -0.306843,1.027123 -0.148508,0.29197 -0.473937,0.55534 -0.68621,0.55534 -0.2829,0 -0.429347,-0.18 -0.429347,-0.52771 0,-0.60579 0.382611,-2.307403 0.937921,-4.171293 1.81651,-6.09708 4.320635,-10.82722 7.31547,-13.81848 1.542047,-1.54021 3.447214,-2.63119 5.285261,-3.02656 0.755754,-0.16257 1.880968,-0.18819 2.514656,-0.0573 1.525021,0.31508 2.626558,1.23372 3.1995,2.66824 0.33201,0.83128 0.457592,1.5593 0.457592,2.65274 0,3.89725 -2.185374,8.32993 -5.9436,12.05565 -0.37719,0.37392 -0.851535,0.81953 -1.0541,0.99022 -0.202565,0.1707 -0.3683,0.32301 -0.3683,0.33847 0,0.0154 0.234315,7.9e-4 0.5207,-0.0327 0.286385,-0.0334 0.860666,-0.0625 1.276183,-0.0647 3.22934,-0.0166 5.282835,1.48801 5.673045,4.156666 0.09188,0.62838 0.03593,1.72788 -0.121748,2.39266 -0.886282,3.7365 -3.881435,7.09936 -7.963514,8.94115 -1.054176,0.47563 -2.549517,0.96225 -3.442808,1.12036 l -0.37514,0.0664 0.03406,0.48594 c 0.01873,0.26727 0.0473,0.64597 0.0635,0.84155 0.02748,0.33191 0.02074,0.3649 -0.100997,0.4953 -0.160919,0.17235 -0.338002,0.17893 -0.523398,0.0195 z"
       style="fill:#727272;fill-opacity:1;stroke-width:1.213;stroke-miterlimit:4;stroke-dasharray:none;stroke:#727272;stroke-opacity:1"
       id="path885" />
  </g>
</svg>
